<?xml version="1.0" encoding="utf-8"?>
<!-- Generator: Adobe Illustrator 26.2.1, SVG Export Plug-In . SVG Version: 6.00 Build 0)  -->
<svg version="1.1" id="katman_1" xmlns="http://www.w3.org/2000/svg" xmlns:xlink="http://www.w3.org/1999/xlink" x="0px" y="0px"
	 viewBox="0 0 500 500" style="enable-background:new 0 0 500 500;" xml:space="preserve">
<style type="text/css">
	.st0{display:none;}
	.st1{display:inline;fill:#FFFFFF;}
	.st2{fill:none;stroke:#FFFFFF;stroke-width:20;stroke-miterlimit:10;}
	.st3{fill:#FFFFFF;}
</style>
<g id="Logo_1_" class="st0">
	<path id="white_background" class="st1" d="M1053,141.5c0.2,2.6,0.2,5.3,0.2,8c0,81.3-61.9,175.1-175.1,175.1l0,0
		c-33.4,0-66.2-9.5-94.3-27.6c4.9,0.6,9.8,0.9,14.6,0.9c27.7,0,54.6-9.3,76.4-26.4c-26.3-0.5-49.4-17.7-57.5-42.7
		c9.2,1.8,18.7,1.4,27.8-1.1c-28.7-5.8-49.4-31-49.4-60.3c0-0.3,0-0.5,0-0.8c8.6,4.8,18.1,7.4,27.9,7.7c-27-18.1-35.4-54.1-19-82.2
		c31.2,38.5,77.4,61.8,126.8,64.3c-5-21.4,1.8-43.8,17.8-58.8c24.8-23.3,63.8-22.1,87.1,2.7c13.8-2.7,27-7.8,39.1-14.9
		c-4.6,14.2-14.2,26.3-27.1,34c12.2-1.4,24.1-4.7,35.3-9.7C1075.5,122,1065.1,132.8,1053,141.5z"/>
</g>
<g>
	<circle class="st2" cx="250" cy="250" r="225"/>
	<path class="st3" d="M331.6,309.9l9.8-63.8h-60.9v-41.4c0-17.4,8.5-34.4,35.8-34.4h27.7V116c0,0-25.2-4.3-49.2-4.3
		c-50.1,0-82.9,30.5-82.9,85.8v48.6h-55.8v63.8h55.8V464c11.2,1.7,22.7,2.7,34.3,2.7s23.1-1,34.3-2.7V309.9H331.6z"/>
</g>
</svg>
