<?xml version="1.0" encoding="utf-8"?>
<!-- Generator: Adobe Illustrator 26.2.1, SVG Export Plug-In . SVG Version: 6.00 Build 0)  -->
<svg version="1.1" id="katman_1" xmlns="http://www.w3.org/2000/svg" xmlns:xlink="http://www.w3.org/1999/xlink" x="0px" y="0px"
	 viewBox="0 0 500 500" style="enable-background:new 0 0 500 500;" xml:space="preserve">
<style type="text/css">
	.st0{display:none;}
	.st1{display:inline;fill:#FFFFFF;}
	.st2{display:none;fill:#FFFFFF;}
	.st3{fill:none;stroke:#FFFFFF;stroke-width:20;stroke-miterlimit:10;}
	.st4{fill:#FFFFFF;}
</style>
<g id="Logo_1_" class="st0">
	<path id="white_background" class="st1" d="M1053,141.5c0.2,2.6,0.2,5.3,0.2,8c0,81.3-61.9,175.1-175.1,175.1v0
		c-33.4,0-66.2-9.5-94.3-27.6c4.9,0.6,9.8,0.9,14.6,0.9c27.7,0,54.6-9.3,76.4-26.4c-26.3-0.5-49.4-17.7-57.5-42.7
		c9.2,1.8,18.7,1.4,27.8-1.1c-28.7-5.8-49.4-31-49.4-60.3c0-0.3,0-0.5,0-0.8c8.6,4.8,18.1,7.4,27.9,7.7c-27-18.1-35.4-54.1-19-82.2
		c31.2,38.5,77.4,61.8,126.8,64.3c-5-21.4,1.8-43.8,17.8-58.8c24.8-23.3,63.8-22.1,87.1,2.7c13.8-2.7,27-7.8,39.1-14.9
		c-4.6,14.2-14.2,26.3-27.1,34c12.2-1.4,24.1-4.7,35.3-9.7C1075.5,122,1065.1,132.8,1053,141.5z"/>
</g>
<path class="st2" d="M1038.2,104.6l10.2-66.7h-63.7V-5.3c0-18.2,8.9-36,37.4-36h29v-56.7c0,0-26.3-4.5-51.4-4.5
	c-52.4,0-86.7,31.9-86.7,89.7V38h-58.3v66.7H913v161.1c11.7,1.8,23.7,2.8,35.9,2.8s24.2-1,35.9-2.8V104.6H1038.2z"/>
<g>
	<circle class="st3" cx="250" cy="250" r="225"/>
	<path class="st4" d="M250,125c-33.9,0-38.2,0.1-51.5,0.8c-13.3,0.6-22.4,2.7-30.3,5.8C160,134.8,153,139,146,146
		c-6.9,6.9-11.2,13.9-14.4,22.2c-3.1,7.9-5.2,17.1-5.8,30.3c-0.6,13.3-0.8,17.6-0.8,51.5c0,33.9,0.1,38.2,0.8,51.5
		c0.6,13.3,2.7,22.4,5.8,30.3C134.8,340,139,347,146,354c6.9,6.9,13.9,11.3,22.2,14.4c7.9,3.1,17.1,5.2,30.3,5.8
		c13.3,0.6,17.6,0.8,51.5,0.8c33.9,0,38.2-0.1,51.5-0.8c13.3-0.6,22.4-2.7,30.4-5.8c8.2-3.2,15.1-7.5,22.1-14.4
		c6.9-6.9,11.2-13.9,14.4-22.2c3-7.9,5.2-17,5.8-30.3c0.6-13.3,0.8-17.6,0.8-51.5c0-33.9-0.1-38.2-0.8-51.5
		c-0.6-13.3-2.8-22.4-5.8-30.3c-3.2-8.2-7.5-15.2-14.4-22.2c-6.9-6.9-13.9-11.2-22.2-14.4c-8-3.1-17.1-5.2-30.4-5.8
		C288.2,125.1,283.9,125,250,125L250,125z M238.8,147.5c3.3,0,7,0,11.2,0c33.3,0,37.3,0.1,50.5,0.7c12.2,0.6,18.8,2.6,23.2,4.3
		c5.8,2.3,10,5,14.4,9.3c4.4,4.4,7.1,8.6,9.3,14.4c1.7,4.4,3.8,11,4.3,23.2c0.6,13.2,0.7,17.1,0.7,50.5s-0.1,37.3-0.7,50.5
		c-0.6,12.2-2.6,18.8-4.3,23.2c-2.3,5.8-5,10-9.3,14.4s-8.5,7.1-14.4,9.3c-4.4,1.7-11,3.8-23.2,4.3c-13.2,0.6-17.1,0.7-50.5,0.7
		s-37.3-0.1-50.5-0.7c-12.2-0.6-18.8-2.6-23.2-4.3c-5.8-2.3-10-5-14.4-9.3c-4.4-4.4-7.1-8.6-9.3-14.4c-1.7-4.4-3.8-11-4.3-23.2
		c-0.6-13.2-0.7-17.1-0.7-50.5s0.1-37.3,0.7-50.5c0.6-12.2,2.6-18.8,4.3-23.2c2.3-5.8,5-10,9.3-14.4c4.4-4.4,8.6-7.1,14.4-9.3
		c4.4-1.7,11-3.8,23.2-4.3C211.1,147.7,215.5,147.5,238.8,147.5L238.8,147.5z M316.7,168.2c-8.3,0-15,6.7-15,15c0,8.3,6.7,15,15,15
		s15-6.7,15-15C331.7,175,325,168.2,316.7,168.2L316.7,168.2z M250,185.8c-35.5,0-64.1,28.7-64.1,64.1c0,35.5,28.7,64.1,64.1,64.1
		c35.5,0,64.1-28.7,64.1-64.1C314.1,214.5,285.5,185.8,250,185.8L250,185.8z M250,208.3c23,0,41.6,18.6,41.6,41.6
		S273,291.5,250,291.5s-41.6-18.6-41.6-41.6S227,208.3,250,208.3z"/>
</g>
</svg>
