<?xml version="1.0" encoding="utf-8"?>
<!-- Generator: Adobe Illustrator 26.2.1, SVG Export Plug-In . SVG Version: 6.00 Build 0)  -->
<svg version="1.1" id="katman_1" xmlns="http://www.w3.org/2000/svg" xmlns:xlink="http://www.w3.org/1999/xlink" x="0px" y="0px"
	 viewBox="0 0 500 500" style="enable-background:new 0 0 500 500;" xml:space="preserve">
<style type="text/css">
	.st0{fill:#FFFFFF;}
	.st1{fill:none;stroke:#FFFFFF;stroke-width:20;stroke-miterlimit:10;}
</style>
<g>
	<path id="white_background" class="st0" d="M349.5,198.9c0.2,2.2,0.2,4.4,0.2,6.7c0,67.8-51.6,146-146,146l0,0
		c-27.9,0-55.2-7.9-78.6-23c4.1,0.5,8.2,0.8,12.2,0.8c23.1,0,45.5-7.8,63.7-22c-21.9-0.4-41.2-14.8-47.9-35.6
		c7.7,1.5,15.6,1.2,23.2-0.9c-23.9-4.8-41.2-25.9-41.2-50.3c0-0.3,0-0.4,0-0.7c7.2,4,15.1,6.2,23.3,6.4
		c-22.5-15.1-29.5-45.1-15.8-68.5c26,32.1,64.5,51.5,105.7,53.6c-4.2-17.8,1.5-36.5,14.8-49c20.7-19.4,53.2-18.4,72.6,2.3
		c11.5-2.3,22.5-6.5,32.6-12.4c-3.8,11.8-11.8,21.9-22.6,28.4c10.2-1.2,20.1-3.9,29.4-8.1C368.2,182.7,359.5,191.7,349.5,198.9z"/>
	<circle class="st1" cx="250" cy="250" r="225"/>
</g>
</svg>
